<?xml version="1.0" encoding="UTF-8"?>
<!DOCTYPE svg PUBLIC "-//W3C//DTD SVG 1.1//EN" "http://www.w3.org/Graphics/SVG/1.1/DTD/svg11.dtd">
<svg xmlns="http://www.w3.org/2000/svg" version="1.1" width="271px" height="166px" style="shape-rendering:geometricPrecision; text-rendering:geometricPrecision; image-rendering:optimizeQuality; fill-rule:evenodd; clip-rule:evenodd" xmlns:xlink="http://www.w3.org/1999/xlink">
<g><path style="opacity:1" fill="#000206" d="M -0.5,-0.5 C 3.5,-0.5 7.5,-0.5 11.5,-0.5C 5.40726,1.92519 1.40726,6.25852 -0.5,12.5C -0.5,8.16667 -0.5,3.83333 -0.5,-0.5 Z"/></g>
<g><path style="opacity:1" fill="#006dcc" d="M 11.5,-0.5 C 92.8333,-0.5 174.167,-0.5 255.5,-0.5C 263.269,0.600414 268.269,4.93375 270.5,12.5C 270.5,59.1667 270.5,105.833 270.5,152.5C 268.5,159.167 264.167,163.5 257.5,165.5C 175.833,165.5 94.1667,165.5 12.5,165.5C 5.83333,163.5 1.5,159.167 -0.5,152.5C -0.5,105.833 -0.5,59.1667 -0.5,12.5C 1.40726,6.25852 5.40726,1.92519 11.5,-0.5 Z"/></g>
<g><path style="opacity:1" fill="#02040a" d="M 255.5,-0.5 C 260.5,-0.5 265.5,-0.5 270.5,-0.5C 270.5,3.83333 270.5,8.16667 270.5,12.5C 268.269,4.93375 263.269,0.600414 255.5,-0.5 Z"/></g>
<g><path style="opacity:1" fill="#f8fbfd" d="M 245.5,108.5 C 234.012,109.495 222.345,109.828 210.5,109.5C 208.205,106.703 205.705,104.036 203,101.5C 200.167,104.333 197.333,107.167 194.5,110C 152.163,110.833 109.829,110.667 67.5,109.5C 66.4741,102.419 62.4741,99.9192 55.5,102C 54.1667,104.667 52.8333,107.333 51.5,110C 42.1726,110.5 32.8393,110.666 23.5,110.5C 30.1895,91.1089 38.0228,72.1089 47,53.5C 66.0933,52.341 85.26,52.1744 104.5,53C 106.692,57.2156 109.026,61.3822 111.5,65.5C 113.628,61.4097 115.628,57.243 117.5,53C 143.5,52.3333 169.5,52.3333 195.5,53C 198.016,55.6833 200.683,58.1833 203.5,60.5C 206.317,58.1833 208.984,55.6833 211.5,53C 223.181,52.1675 234.848,52.3341 246.5,53.5C 238.167,62.8333 229.833,72.1667 221.5,81.5C 229.522,90.5198 237.522,99.5198 245.5,108.5 Z"/></g>
<g><path style="opacity:1" fill="#1272d0" d="M 52.5,60.5 C 57.7616,60.1953 62.9283,60.5286 68,61.5C 72.4633,72.5476 77.13,83.5476 82,94.5C 82.4999,83.1716 82.6665,71.8382 82.5,60.5C 88.1764,60.3339 93.8431,60.5006 99.5,61C 103.6,69.1408 107.6,77.3074 111.5,85.5C 115.663,77.8339 119.329,69.8339 122.5,61.5C 128.128,60.5046 133.794,60.1712 139.5,60.5C 139.5,74.5 139.5,88.5 139.5,102.5C 135.894,102.789 132.394,102.456 129,101.5C 128.667,92.5 128.333,83.5 128,74.5C 123.597,83.3007 119.764,92.3007 116.5,101.5C 112.894,101.789 109.394,101.456 106,100.5C 102.698,91.8968 98.8642,83.5635 94.5,75.5C 93.5018,84.4754 93.1685,93.4754 93.5,102.5C 86.8002,102.83 80.1335,102.497 73.5,101.5C 72.0219,98.7117 70.6886,95.8783 69.5,93C 63.1667,92.3333 56.8333,92.3333 50.5,93C 48.7651,95.6368 47.4318,98.4701 46.5,101.5C 42.8927,102.489 39.226,102.823 35.5,102.5C 40.3868,88.1704 46.0535,74.1704 52.5,60.5 Z"/></g>
<g><path style="opacity:1" fill="#1573d0" d="M 226.5,99.5 C 222.971,101.423 218.971,102.089 214.5,101.5C 210.898,97.3954 207.065,93.3954 203,89.5C 198.833,93.6667 194.667,97.8333 190.5,102C 176.171,102.5 161.837,102.667 147.5,102.5C 147.5,88.5 147.5,74.5 147.5,60.5C 162.17,60.3334 176.837,60.5001 191.5,61C 195.702,64.8666 199.535,69.0332 203,73.5C 207.202,69.6334 211.035,65.4668 214.5,61C 218.871,60.1725 223.205,60.3391 227.5,61.5C 221.833,68.1667 216.167,74.8333 210.5,81.5C 215.513,87.8429 220.846,93.8429 226.5,99.5 Z"/></g>
<g><path style="opacity:1" fill="#f6f9fd" d="M 180.5,65.5 C 182.716,66.2026 184.549,67.5359 186,69.5C 189.357,73.3562 192.524,77.3562 195.5,81.5C 190.805,86.5261 186.139,91.5261 181.5,96.5C 180.571,95.3112 180.238,93.9778 180.5,92.5C 173.167,92.5 165.833,92.5 158.5,92.5C 158.5,90.1667 158.5,87.8333 158.5,85.5C 165.833,85.5 173.167,85.5 180.5,85.5C 180.5,82.5 180.5,79.5 180.5,76.5C 173.159,76.6663 165.826,76.4997 158.5,76C 157.594,74.3005 157.261,72.4672 157.5,70.5C 164.841,70.6663 172.174,70.4997 179.5,70C 180.38,68.6439 180.714,67.1439 180.5,65.5 Z"/></g>
<g><path style="opacity:1" fill="#f2f7fc" d="M 59.5,70.5 C 62.5267,74.2371 64.1933,78.5705 64.5,83.5C 61.1016,83.8204 57.7683,83.487 54.5,82.5C 56.1741,78.471 57.8407,74.471 59.5,70.5 Z"/></g>
<g><path style="opacity:1" fill="#7bb4e5" d="M 226.5,99.5 C 227.404,100.209 227.737,101.209 227.5,102.5C 222.968,102.818 218.634,102.485 214.5,101.5C 218.971,102.089 222.971,101.423 226.5,99.5 Z"/></g>
<g><path style="opacity:1" fill="#c9e1f5" d="M 245.5,108.5 C 246.043,108.56 246.376,108.893 246.5,109.5C 234.34,110.825 222.34,110.825 210.5,109.5C 222.345,109.828 234.012,109.495 245.5,108.5 Z"/></g>
<g><path style="opacity:1" fill="#010307" d="M -0.5,152.5 C 1.5,159.167 5.83333,163.5 12.5,165.5C 8.16667,165.5 3.83333,165.5 -0.5,165.5C -0.5,161.167 -0.5,156.833 -0.5,152.5 Z"/></g>
<g><path style="opacity:1" fill="#010307" d="M 270.5,152.5 C 270.5,156.833 270.5,161.167 270.5,165.5C 266.167,165.5 261.833,165.5 257.5,165.5C 264.167,163.5 268.5,159.167 270.5,152.5 Z"/></g>
</svg>
