<?xml version="1.0" encoding="UTF-8"?>
<!DOCTYPE svg PUBLIC "-//W3C//DTD SVG 1.1//EN" "http://www.w3.org/Graphics/SVG/1.1/DTD/svg11.dtd">
<svg xmlns="http://www.w3.org/2000/svg" version="1.1" width="271px" height="166px" style="shape-rendering:geometricPrecision; text-rendering:geometricPrecision; image-rendering:optimizeQuality; fill-rule:evenodd; clip-rule:evenodd" xmlns:xlink="http://www.w3.org/1999/xlink">
<g><path style="opacity:1" fill="#070707" d="M -0.5,-0.5 C 3.5,-0.5 7.5,-0.5 11.5,-0.5C 5.40726,1.92519 1.40726,6.25852 -0.5,12.5C -0.5,8.16667 -0.5,3.83333 -0.5,-0.5 Z"/></g>
<g><path style="opacity:1" fill="#fbfbfb" d="M 11.5,-0.5 C 92.8333,-0.5 174.167,-0.5 255.5,-0.5C 263.269,0.600414 268.269,4.93375 270.5,12.5C 270.5,59.1667 270.5,105.833 270.5,152.5C 268.5,159.167 264.167,163.5 257.5,165.5C 175.833,165.5 94.1667,165.5 12.5,165.5C 5.83333,163.5 1.5,159.167 -0.5,152.5C -0.5,105.833 -0.5,59.1667 -0.5,12.5C 1.40726,6.25852 5.40726,1.92519 11.5,-0.5 Z"/></g>
<g><path style="opacity:1" fill="#0c0c0c" d="M 255.5,-0.5 C 260.5,-0.5 265.5,-0.5 270.5,-0.5C 270.5,3.83333 270.5,8.16667 270.5,12.5C 268.269,4.93375 263.269,0.600414 255.5,-0.5 Z"/></g>
<g><path style="opacity:1" fill="#9bc4e4" d="M 157.5,30.5 C 138.659,30.1698 119.993,30.5031 101.5,31.5C 99.3453,31.628 97.3453,31.128 95.5,30C 116.337,29.1707 137.004,29.3374 157.5,30.5 Z"/></g>
<g><path style="opacity:1" fill="#3286c8" d="M 101.5,31.5 C 119.993,30.5031 138.659,30.1698 157.5,30.5C 185.773,35.9467 200.773,53.1133 202.5,82C 201.108,111.339 186.108,128.839 157.5,134.5C 138.659,134.83 119.993,134.497 101.5,133.5C 126.793,125.918 139.793,108.918 140.5,82.5C 139.797,56.0945 126.797,39.0945 101.5,31.5 Z"/></g>
<g><path style="opacity:1" fill="#3487c8" d="M 79.5,52.5 C 80.5,52.5 81.5,52.5 82.5,52.5C 82.6666,72.1695 82.5,91.8362 82,111.5C 81.4387,112.022 80.772,112.355 80,112.5C 67.1868,106.228 60.3535,95.8942 59.5,81.5C 60.5114,67.7759 67.178,58.1092 79.5,52.5 Z"/></g>
<g><path style="opacity:1" fill="#3387c8" d="M 97.5,52.5 C 111.089,57.5981 118.422,67.4314 119.5,82C 119.049,96.7505 112.049,106.917 98.5,112.5C 97.5004,92.5111 97.167,72.5111 97.5,52.5 Z"/></g>
<g><path style="opacity:1" fill="#9bc4e4" d="M 101.5,133.5 C 119.993,134.497 138.659,134.83 157.5,134.5C 137.004,135.663 116.337,135.829 95.5,135C 97.3453,133.872 99.3453,133.372 101.5,133.5 Z"/></g>
<g><path style="opacity:1" fill="#080808" d="M -0.5,152.5 C 1.5,159.167 5.83333,163.5 12.5,165.5C 8.16667,165.5 3.83333,165.5 -0.5,165.5C -0.5,161.167 -0.5,156.833 -0.5,152.5 Z"/></g>
<g><path style="opacity:1" fill="#080808" d="M 270.5,152.5 C 270.5,156.833 270.5,161.167 270.5,165.5C 266.167,165.5 261.833,165.5 257.5,165.5C 264.167,163.5 268.5,159.167 270.5,152.5 Z"/></g>
</svg>
