<?xml version="1.0" encoding="UTF-8"?>
<!DOCTYPE svg PUBLIC "-//W3C//DTD SVG 1.1//EN" "http://www.w3.org/Graphics/SVG/1.1/DTD/svg11.dtd">
<svg xmlns="http://www.w3.org/2000/svg" version="1.1" width="271px" height="166px" style="shape-rendering:geometricPrecision; text-rendering:geometricPrecision; image-rendering:optimizeQuality; fill-rule:evenodd; clip-rule:evenodd" xmlns:xlink="http://www.w3.org/1999/xlink">
<g><path style="opacity:1" fill="#070707" d="M -0.5,-0.5 C 3.5,-0.5 7.5,-0.5 11.5,-0.5C 5.40726,1.92519 1.40726,6.25852 -0.5,12.5C -0.5,8.16667 -0.5,3.83333 -0.5,-0.5 Z"/></g>
<g><path style="opacity:1" fill="#fbfbfb" d="M 11.5,-0.5 C 92.8333,-0.5 174.167,-0.5 255.5,-0.5C 263.269,0.600414 268.269,4.93375 270.5,12.5C 270.5,38.5 270.5,64.5 270.5,90.5C 269.209,90.2627 268.209,90.596 267.5,91.5C 206.164,126.837 140.497,150.504 70.5,162.5C 68.1992,163.06 65.8659,163.56 63.5,164C 46.5033,164.5 29.5033,164.667 12.5,164.5C 5.58164,163.247 1.2483,159.247 -0.5,152.5C -0.5,105.833 -0.5,59.1667 -0.5,12.5C 1.40726,6.25852 5.40726,1.92519 11.5,-0.5 Z"/></g>
<g><path style="opacity:1" fill="#0c0c0c" d="M 255.5,-0.5 C 260.5,-0.5 265.5,-0.5 270.5,-0.5C 270.5,3.83333 270.5,8.16667 270.5,12.5C 268.269,4.93375 263.269,0.600414 255.5,-0.5 Z"/></g>
<g><path style="opacity:1" fill="#2a2627" d="M 117.5,78.5 C 118.468,80.6074 118.802,82.9407 118.5,85.5C 104.591,91.4688 94.4244,87.4688 88,73.5C 85.5897,60.4864 90.423,51.3197 102.5,46C 108.042,45.0872 113.375,45.7539 118.5,48C 119.435,50.3806 119.768,52.8806 119.5,55.5C 116.984,55.2447 114.65,54.4114 112.5,53C 102.813,52.0158 97.1461,56.3491 95.5,66C 97.5013,79.8298 104.835,83.9965 117.5,78.5 Z"/></g>
<g><path style="opacity:1" fill="#282425" d="M 7.5,46.5 C 13.8421,46.3338 20.1754,46.5005 26.5,47C 41.8329,53.999 45.3329,64.8323 37,79.5C 28.9596,87.2409 19.4596,89.5743 8.5,86.5C 7.51838,73.2162 7.18505,59.8828 7.5,46.5 Z"/></g>
<g><path style="opacity:1" fill="#2d292a" d="M 45.5,46.5 C 48.1667,46.5 50.8333,46.5 53.5,46.5C 53.6666,59.8375 53.4999,73.1708 53,86.5C 50.6194,87.435 48.1194,87.7683 45.5,87.5C 45.5,73.8333 45.5,60.1667 45.5,46.5 Z"/></g>
<g><path style="opacity:1" fill="#2a2627" d="M 66.5,45.5 C 72.6656,44.7788 77.999,46.4455 82.5,50.5C 81.8257,52.5165 80.6591,54.1832 79,55.5C 74.3184,51.2041 70.1517,51.5374 66.5,56.5C 66.5288,58.0293 67.1955,59.196 68.5,60C 72.1667,61.6667 75.8333,63.3333 79.5,65C 85.1968,70.3996 86.0302,76.5663 82,83.5C 76.2698,88.5849 69.7698,89.7516 62.5,87C 59.6367,85.6365 57.6367,83.4698 56.5,80.5C 57.5403,78.6251 59.0403,77.2918 61,76.5C 65.8216,82.4143 70.8216,82.7476 76,77.5C 76.7562,75.1913 76.2562,73.1913 74.5,71.5C 70.8736,69.9023 67.2069,68.4023 63.5,67C 58.9191,63.5616 57.4191,59.0616 59,53.5C 60.9554,50.2832 63.4554,47.6166 66.5,45.5 Z"/></g>
<g><path style="opacity:1" fill="#292526" d="M 163.5,46.5 C 166.572,46.1826 169.572,46.5159 172.5,47.5C 176.082,55.3223 179.082,63.3223 181.5,71.5C 182.5,71.5 183.5,71.5 184.5,71.5C 186.924,63.3124 189.924,55.3124 193.5,47.5C 196.5,46.1667 199.5,46.1667 202.5,47.5C 196.409,60.6859 190.576,74.0192 185,87.5C 181.916,88.959 179.916,87.959 179,84.5C 173.925,71.7692 168.758,59.1025 163.5,46.5 Z"/></g>
<g><path style="opacity:1" fill="#2a2627" d="M 206.5,46.5 C 214.167,46.5 221.833,46.5 229.5,46.5C 229.756,48.7925 229.423,50.9592 228.5,53C 223.845,53.4992 219.179,53.6658 214.5,53.5C 214.5,56.5 214.5,59.5 214.5,62.5C 219.167,62.5 223.833,62.5 228.5,62.5C 228.5,64.8333 228.5,67.1667 228.5,69.5C 223.833,69.5 219.167,69.5 214.5,69.5C 214.5,73.1667 214.5,76.8333 214.5,80.5C 219.179,80.3342 223.845,80.5008 228.5,81C 229.833,83 229.833,85 228.5,87C 221.174,87.4997 213.841,87.6663 206.5,87.5C 206.5,73.8333 206.5,60.1667 206.5,46.5 Z"/></g>
<g><path style="opacity:1" fill="#262223" d="M 234.5,46.5 C 240.176,46.3339 245.843,46.5006 251.5,47C 259.708,49.5793 262.541,55.0793 260,63.5C 258.305,66.6945 255.805,69.0278 252.5,70.5C 256.307,76.14 260.307,81.64 264.5,87C 261.167,87.6667 257.833,87.6667 254.5,87C 250.698,81.8836 247.031,76.7169 243.5,71.5C 242.505,76.7921 242.172,82.1254 242.5,87.5C 239.833,87.5 237.167,87.5 234.5,87.5C 234.5,73.8333 234.5,60.1667 234.5,46.5 Z"/></g>
<g><path style="opacity:1" fill="#e26c29" d="M 160.5,53.5 C 157.188,55.3008 153.688,57.6341 150,60.5C 149.667,60.1667 149.333,59.8333 149,59.5C 146.274,61.1876 143.441,62.6876 140.5,64C 137.833,66.3333 135.167,68.6667 132.5,71C 128.981,71.1662 125.981,72.3329 123.5,74.5C 119.299,59.794 124.633,49.9607 139.5,45C 148.215,43.8441 155.215,46.6774 160.5,53.5 Z"/></g>
<g><path style="opacity:1" fill="#918f8f" d="M 263.5,46.5 C 268.159,46.0146 269.492,47.848 267.5,52C 262.728,52.8104 261.395,50.9771 263.5,46.5 Z"/></g>
<g><path style="opacity:1" fill="#fafafa" d="M 16.5,53.5 C 27.7012,53.1535 33.2012,58.4868 33,69.5C 31.6472,74.6835 28.4805,78.0168 23.5,79.5C 21.1667,79.5 18.8333,79.5 16.5,79.5C 16.5,70.8333 16.5,62.1667 16.5,53.5 Z"/></g>
<g><path style="opacity:1" fill="#efefef" d="M 243.5,52.5 C 251.085,52.0742 253.752,55.4076 251.5,62.5C 249.08,65.0772 246.08,66.0772 242.5,65.5C 242.231,61.0685 242.564,56.7352 243.5,52.5 Z"/></g>
<g><path style="opacity:1" fill="#c9c8c9" d="M 16.5,53.5 C 16.5,62.1667 16.5,70.8333 16.5,79.5C 18.8333,79.5 21.1667,79.5 23.5,79.5C 21.0521,80.4731 18.3854,80.8064 15.5,80.5C 15.1734,71.3178 15.5067,62.3178 16.5,53.5 Z"/></g>
<g><path style="opacity:1" fill="#e87725" d="M 160.5,53.5 C 162.588,55.3356 163.921,57.6689 164.5,60.5C 152.804,68.1686 140.804,75.5019 128.5,82.5C 125.818,80.4697 124.151,77.803 123.5,74.5C 125.981,72.3329 128.981,71.1662 132.5,71C 135.167,68.6667 137.833,66.3333 140.5,64C 143.441,62.6876 146.274,61.1876 149,59.5C 149.333,59.8333 149.667,60.1667 150,60.5C 153.688,57.6341 157.188,55.3008 160.5,53.5 Z"/></g>
<g><path style="opacity:1" fill="#f08825" d="M 164.5,60.5 C 167.27,77.2606 160.103,86.9273 143,89.5C 137.248,88.8729 132.415,86.5396 128.5,82.5C 140.804,75.5019 152.804,68.1686 164.5,60.5 Z"/></g>
<g><path style="opacity:1" fill="#747172" d="M 117.5,78.5 C 117.56,77.9569 117.893,77.6236 118.5,77.5C 119.8,80.3092 119.8,82.9759 118.5,85.5C 118.802,82.9407 118.468,80.6074 117.5,78.5 Z"/></g>
<g><path style="opacity:1" fill="#f48121" d="M 267.5,91.5 C 269.488,111.806 270.155,132.473 269.5,153.5C 268.167,159.5 264.5,163.167 258.5,164.5C 195.499,164.667 132.499,164.5 69.5,164C 70.056,163.617 70.3893,163.117 70.5,162.5C 140.497,150.504 206.164,126.837 267.5,91.5 Z"/></g>
<g><path style="opacity:1" fill="#cb8040" d="M 267.5,91.5 C 268.209,90.596 269.209,90.2627 270.5,90.5C 270.5,111.5 270.5,132.5 270.5,153.5C 270.167,153.5 269.833,153.5 269.5,153.5C 270.155,132.473 269.488,111.806 267.5,91.5 Z"/></g>
<g><path style="opacity:1" fill="#080808" d="M -0.5,152.5 C 1.2483,159.247 5.58164,163.247 12.5,164.5C 12.5,164.833 12.5,165.167 12.5,165.5C 8.16667,165.5 3.83333,165.5 -0.5,165.5C -0.5,161.167 -0.5,156.833 -0.5,152.5 Z"/></g>
<g><path style="opacity:1" fill="#0d0906" d="M 269.5,153.5 C 269.833,153.5 270.167,153.5 270.5,153.5C 270.5,157.5 270.5,161.5 270.5,165.5C 266.5,165.5 262.5,165.5 258.5,165.5C 258.5,165.167 258.5,164.833 258.5,164.5C 264.5,163.167 268.167,159.5 269.5,153.5 Z"/></g>
<g><path style="opacity:1" fill="#b1815a" d="M 70.5,162.5 C 70.3893,163.117 70.056,163.617 69.5,164C 132.499,164.5 195.499,164.667 258.5,164.5C 258.5,164.833 258.5,165.167 258.5,165.5C 176.5,165.5 94.5,165.5 12.5,165.5C 12.5,165.167 12.5,164.833 12.5,164.5C 29.5033,164.667 46.5033,164.5 63.5,164C 65.8659,163.56 68.1992,163.06 70.5,162.5 Z"/></g>
</svg>
