<?xml version="1.0" encoding="UTF-8"?>
<!DOCTYPE svg PUBLIC "-//W3C//DTD SVG 1.1//EN" "http://www.w3.org/Graphics/SVG/1.1/DTD/svg11.dtd">
<svg xmlns="http://www.w3.org/2000/svg" version="1.1" width="271px" height="166px" style="shape-rendering:geometricPrecision; text-rendering:geometricPrecision; image-rendering:optimizeQuality; fill-rule:evenodd; clip-rule:evenodd" xmlns:xlink="http://www.w3.org/1999/xlink">
<g><path style="opacity:1" fill="#070707" d="M -0.5,-0.5 C 3.5,-0.5 7.5,-0.5 11.5,-0.5C 5.40726,1.92519 1.40726,6.25852 -0.5,12.5C -0.5,8.16667 -0.5,3.83333 -0.5,-0.5 Z"/></g>
<g><path style="opacity:1" fill="#fbfbfb" d="M 11.5,-0.5 C 92.8333,-0.5 174.167,-0.5 255.5,-0.5C 263.269,0.600414 268.269,4.93375 270.5,12.5C 270.5,59.1667 270.5,105.833 270.5,152.5C 268.5,159.167 264.167,163.5 257.5,165.5C 175.833,165.5 94.1667,165.5 12.5,165.5C 5.83333,163.5 1.5,159.167 -0.5,152.5C -0.5,105.833 -0.5,59.1667 -0.5,12.5C 1.40726,6.25852 5.40726,1.92519 11.5,-0.5 Z"/></g>
<g><path style="opacity:1" fill="#0c0c0c" d="M 255.5,-0.5 C 260.5,-0.5 265.5,-0.5 270.5,-0.5C 270.5,3.83333 270.5,8.16667 270.5,12.5C 268.269,4.93375 263.269,0.600414 255.5,-0.5 Z"/></g>
<g><path style="opacity:1" fill="#106ce5" d="M 56.5,68.5 C 58.6165,70.6 60.2831,72.9333 61.5,75.5C 65.4761,80.7676 68.9761,86.4343 72,92.5C 73.7038,94.3734 75.5372,96.0401 77.5,97.5C 78.209,98.404 79.209,98.7373 80.5,98.5C 80.5,100.5 80.5,102.5 80.5,104.5C 78.5,104.5 76.5,104.5 74.5,104.5C 71.5865,103.094 69.0865,101.094 67,98.5C 63.6069,93.2799 60.4402,87.9466 57.5,82.5C 56.0664,79.9528 54.3998,77.6195 52.5,75.5C 47.0904,65.9752 40.9237,65.3085 34,73.5C 31.9243,76.8931 30.7576,80.5598 30.5,84.5C 29.5655,85.5676 29.2322,86.901 29.5,88.5C 27.5,88.5 25.5,88.5 23.5,88.5C 23.5,86.5 23.5,84.5 23.5,82.5C 24.5051,70.7819 30.5051,63.1153 41.5,59.5C 47.7806,60.4631 52.7806,63.4631 56.5,68.5 Z"/></g>
<g><path style="opacity:1" fill="#1e86fa" d="M 74.5,104.5 C 76.5,104.5 78.5,104.5 80.5,104.5C 80.5,102.5 80.5,100.5 80.5,98.5C 79.209,98.7373 78.209,98.404 77.5,97.5C 79.7224,97.822 81.5557,97.1554 83,95.5C 85.1661,86.6552 83.8328,78.3219 79,70.5C 74.2814,65.6343 69.2814,65.301 64,69.5C 62.4412,71.2166 61.6079,73.2166 61.5,75.5C 60.2831,72.9333 58.6165,70.6 56.5,68.5C 59.9378,66.2411 63.2711,63.7411 66.5,61C 76.8532,59.5957 84.0198,63.7623 88,73.5C 90.8282,82.0805 91.1615,90.7472 89,99.5C 85.4003,105.062 80.5669,106.728 74.5,104.5 Z"/></g>
<g><path style="opacity:1" fill="#040404" d="M 144.5,104.5 C 144.832,93.8126 144.499,83.1459 143.5,72.5C 142.893,72.6236 142.56,72.9569 142.5,73.5C 139.564,79.6081 136.397,85.6081 133,91.5C 129.667,95.5 126.333,95.5 123,91.5C 119.603,85.6081 116.436,79.6081 113.5,73.5C 113.217,72.7109 112.717,72.0442 112,71.5C 111.5,82.495 111.333,93.495 111.5,104.5C 109.5,104.5 107.5,104.5 105.5,104.5C 105.5,90.1667 105.5,75.8333 105.5,61.5C 108.448,61.2229 111.281,61.5562 114,62.5C 118.92,70.6717 123.587,79.005 128,87.5C 132.92,79.3283 137.587,70.995 142,62.5C 144.719,61.5562 147.552,61.2229 150.5,61.5C 150.5,75.8333 150.5,90.1667 150.5,104.5C 148.5,104.5 146.5,104.5 144.5,104.5 Z"/></g>
<g><path style="opacity:1" fill="#070707" d="M 196.5,94.5 C 196.5,88.8333 196.5,83.1667 196.5,77.5C 194.167,77.5 191.833,77.5 189.5,77.5C 189.5,75.8333 189.5,74.1667 189.5,72.5C 191.833,72.5 194.167,72.5 196.5,72.5C 196.5,69.5 196.5,66.5 196.5,63.5C 198.5,63.5 200.5,63.5 202.5,63.5C 202.5,66.5 202.5,69.5 202.5,72.5C 205.833,72.5 209.167,72.5 212.5,72.5C 212.5,74.5 212.5,76.5 212.5,78.5C 209.167,78.5 205.833,78.5 202.5,78.5C 202.334,84.5092 202.501,90.5092 203,96.5C 205.546,99.1856 208.713,100.186 212.5,99.5C 212.739,101.467 212.406,103.301 211.5,105C 202.504,106.857 197.504,103.357 196.5,94.5 Z"/></g>
<g><path style="opacity:1" fill="#fafcfe" d="M 77.5,97.5 C 75.5372,96.0401 73.7038,94.3734 72,92.5C 68.9761,86.4343 65.4761,80.7676 61.5,75.5C 61.6079,73.2166 62.4412,71.2166 64,69.5C 69.2814,65.301 74.2814,65.6343 79,70.5C 83.8328,78.3219 85.1661,86.6552 83,95.5C 81.5557,97.1554 79.7224,97.822 77.5,97.5 Z"/></g>
<g><path style="opacity:1" fill="#fafcfe" d="M 52.5,75.5 C 48.9745,83.3775 44.3079,90.5442 38.5,97C 36.2305,97.7581 34.0639,97.5914 32,96.5C 30.6463,92.6372 30.1463,88.6372 30.5,84.5C 30.7576,80.5598 31.9243,76.8931 34,73.5C 40.9237,65.3085 47.0904,65.9752 52.5,75.5 Z"/></g>
<g><path style="opacity:1" fill="#7c7c7c" d="M 113.5,73.5 C 112.833,83.8333 112.167,94.1667 111.5,104.5C 111.333,93.495 111.5,82.495 112,71.5C 112.717,72.0442 113.217,72.7109 113.5,73.5 Z"/></g>
<g><path style="opacity:1" fill="#7e7e7e" d="M 142.5,73.5 C 142.56,72.9569 142.893,72.6236 143.5,72.5C 144.499,83.1459 144.832,93.8126 144.5,104.5C 143.833,94.1667 143.167,83.8333 142.5,73.5 Z"/></g>
<g><path style="opacity:1" fill="#0b0b0b" d="M 168.5,71.5 C 181.753,70.7525 188.086,77.0859 187.5,90.5C 179.833,90.5 172.167,90.5 164.5,90.5C 165.757,97.9105 170.09,100.744 177.5,99C 179.536,98.5464 181.37,97.7131 183,96.5C 184.714,97.0762 185.881,98.2429 186.5,100C 177.197,107.67 168.364,107.17 160,98.5C 154.753,86.7481 157.586,77.7481 168.5,71.5 Z"/></g>
<g><path style="opacity:1" fill="#0b0b0b" d="M 226.5,71.5 C 232.291,70.4888 237.124,72.1555 241,76.5C 241.49,75.2068 241.657,73.8734 241.5,72.5C 243.5,72.5 245.5,72.5 247.5,72.5C 247.5,83.1667 247.5,93.8333 247.5,104.5C 245.5,104.5 243.5,104.5 241.5,104.5C 241.762,103.022 241.429,101.689 240.5,100.5C 231.946,107.826 224.446,106.826 218,97.5C 213.345,86.2993 216.178,77.6327 226.5,71.5 Z"/></g>
<g><path style="opacity:1" fill="#1e86fa" d="M 52.5,75.5 C 54.3998,77.6195 56.0664,79.9528 57.5,82.5C 55.9256,82.9371 54.7589,83.9371 54,85.5C 51.0367,91.9325 47.2034,97.7659 42.5,103C 33.2367,107.617 26.7367,105.117 23,95.5C 22.1864,90.9796 22.353,86.6463 23.5,82.5C 23.5,84.5 23.5,86.5 23.5,88.5C 25.5,88.5 27.5,88.5 29.5,88.5C 29.2322,86.901 29.5655,85.5676 30.5,84.5C 30.1463,88.6372 30.6463,92.6372 32,96.5C 34.0639,97.5914 36.2305,97.7581 38.5,97C 44.3079,90.5442 48.9745,83.3775 52.5,75.5 Z"/></g>
<g><path style="opacity:1" fill="#f6f6f6" d="M 180.5,83.5 C 175.604,85.4461 170.271,86.1128 164.5,85.5C 166.076,78.045 170.41,75.8783 177.5,79C 179.141,80.129 180.141,81.629 180.5,83.5 Z"/></g>
<g><path style="opacity:1" fill="#7d7d7d" d="M 189.5,77.5 C 191.833,77.5 194.167,77.5 196.5,77.5C 196.5,83.1667 196.5,88.8333 196.5,94.5C 195.512,89.3595 195.179,84.0262 195.5,78.5C 193.265,78.7947 191.265,78.4614 189.5,77.5 Z"/></g>
<g><path style="opacity:1" fill="#f6f6f6" d="M 228.5,77.5 C 233.635,76.4262 237.468,78.0928 240,82.5C 240.667,86.5 240.667,90.5 240,94.5C 235.673,100.165 230.673,100.832 225,96.5C 220.883,89.0535 222.05,82.7201 228.5,77.5 Z"/></g>
<g><path style="opacity:1" fill="#777777" d="M 180.5,83.5 C 181.404,84.209 181.737,85.209 181.5,86.5C 175.642,86.8222 169.975,86.4889 164.5,85.5C 170.271,86.1128 175.604,85.4461 180.5,83.5 Z"/></g>
<g><path style="opacity:1" fill="#080808" d="M -0.5,152.5 C 1.5,159.167 5.83333,163.5 12.5,165.5C 8.16667,165.5 3.83333,165.5 -0.5,165.5C -0.5,161.167 -0.5,156.833 -0.5,152.5 Z"/></g>
<g><path style="opacity:1" fill="#080808" d="M 270.5,152.5 C 270.5,156.833 270.5,161.167 270.5,165.5C 266.167,165.5 261.833,165.5 257.5,165.5C 264.167,163.5 268.5,159.167 270.5,152.5 Z"/></g>
</svg>
