<?xml version="1.0" encoding="UTF-8"?>
<!DOCTYPE svg PUBLIC "-//W3C//DTD SVG 1.1//EN" "http://www.w3.org/Graphics/SVG/1.1/DTD/svg11.dtd">
<svg xmlns="http://www.w3.org/2000/svg" version="1.1" width="271px" height="166px" style="shape-rendering:geometricPrecision; text-rendering:geometricPrecision; image-rendering:optimizeQuality; fill-rule:evenodd; clip-rule:evenodd" xmlns:xlink="http://www.w3.org/1999/xlink">
<g><path style="opacity:1" fill="#070707" d="M -0.5,-0.5 C 3.5,-0.5 7.5,-0.5 11.5,-0.5C 5.40726,1.92519 1.40726,6.25852 -0.5,12.5C -0.5,8.16667 -0.5,3.83333 -0.5,-0.5 Z"/></g>
<g><path style="opacity:1" fill="#fcfcfc" d="M 11.5,-0.5 C 92.8333,-0.5 174.167,-0.5 255.5,-0.5C 263.269,0.600414 268.269,4.93375 270.5,12.5C 270.5,59.1667 270.5,105.833 270.5,152.5C 268.5,159.167 264.167,163.5 257.5,165.5C 175.833,165.5 94.1667,165.5 12.5,165.5C 5.83333,163.5 1.5,159.167 -0.5,152.5C -0.5,105.833 -0.5,59.1667 -0.5,12.5C 1.40726,6.25852 5.40726,1.92519 11.5,-0.5 Z"/></g>
<g><path style="opacity:1" fill="#0c0c0c" d="M 255.5,-0.5 C 260.5,-0.5 265.5,-0.5 270.5,-0.5C 270.5,3.83333 270.5,8.16667 270.5,12.5C 268.269,4.93375 263.269,0.600414 255.5,-0.5 Z"/></g>
<g><path style="opacity:1" fill="#043187" d="M 171.5,45.5 C 171.5,48.5 171.5,51.5 171.5,54.5C 167.563,53.2446 163.563,52.0779 159.5,51C 149.833,50.3333 140.167,50.3333 130.5,51C 128.357,53.7578 127.19,56.9245 127,60.5C 125.766,69.1653 124.6,77.832 123.5,86.5C 121.996,95.2008 120.329,103.868 118.5,112.5C 111.825,112.666 105.158,112.5 98.5,112C 97.9032,110.938 97.5698,109.772 97.5,108.5C 100.998,84.5163 104.498,60.5163 108,36.5C 108.471,34.7536 109.138,33.087 110,31.5C 125.092,30.3431 140.259,30.1764 155.5,31C 163.584,32.9224 168.917,37.7557 171.5,45.5 Z"/></g>
<g><path style="opacity:1" fill="#012169" d="M 171.5,54.5 C 170.748,69.2054 163.415,78.7054 149.5,83C 141.543,84.1089 133.543,84.7756 125.5,85C 124.956,85.7172 124.289,86.2172 123.5,86.5C 124.6,77.832 125.766,69.1653 127,60.5C 127.19,56.9245 128.357,53.7578 130.5,51C 140.167,50.3333 149.833,50.3333 159.5,51C 163.563,52.0779 167.563,53.2446 171.5,54.5 Z"/></g>
<g><path style="opacity:1" fill="#3386c7" d="M 171.5,45.5 C 172.321,48.6414 172.821,51.9748 173,55.5C 181.171,67.1244 181.504,79.1244 174,91.5C 165.856,100.44 155.69,104.274 143.5,103C 143,103.5 142.5,104 142,104.5C 140.882,111.875 139.549,119.209 138,126.5C 137.5,127 137,127.5 136.5,128C 130.5,128.667 124.5,128.667 118.5,128C 117.69,122.907 117.69,117.741 118.5,112.5C 120.329,103.868 121.996,95.2008 123.5,86.5C 124.289,86.2172 124.956,85.7172 125.5,85C 133.543,84.7756 141.543,84.1089 149.5,83C 163.415,78.7054 170.748,69.2054 171.5,54.5C 171.5,51.5 171.5,48.5 171.5,45.5 Z"/></g>
<g><path style="opacity:1" fill="#080808" d="M -0.5,152.5 C 1.5,159.167 5.83333,163.5 12.5,165.5C 8.16667,165.5 3.83333,165.5 -0.5,165.5C -0.5,161.167 -0.5,156.833 -0.5,152.5 Z"/></g>
<g><path style="opacity:1" fill="#080808" d="M 270.5,152.5 C 270.5,156.833 270.5,161.167 270.5,165.5C 266.167,165.5 261.833,165.5 257.5,165.5C 264.167,163.5 268.5,159.167 270.5,152.5 Z"/></g>
</svg>
