<?xml version="1.0" encoding="UTF-8"?>
<!DOCTYPE svg PUBLIC "-//W3C//DTD SVG 1.1//EN" "http://www.w3.org/Graphics/SVG/1.1/DTD/svg11.dtd">
<svg xmlns="http://www.w3.org/2000/svg" version="1.1" width="270px" height="166px" style="shape-rendering:geometricPrecision; text-rendering:geometricPrecision; image-rendering:optimizeQuality; fill-rule:evenodd; clip-rule:evenodd" xmlns:xlink="http://www.w3.org/1999/xlink">
<g><path style="opacity:1" fill="#030108" d="M -0.5,-0.5 C 3.16667,-0.5 6.83333,-0.5 10.5,-0.5C 5.55883,1.4416 1.89217,4.77493 -0.5,9.5C -0.5,6.16667 -0.5,2.83333 -0.5,-0.5 Z"/></g>
<g><path style="opacity:1" fill="#5931f1" d="M 10.5,-0.5 C 91.8333,-0.5 173.167,-0.5 254.5,-0.5C 262.269,0.600414 267.269,4.93375 269.5,12.5C 269.5,59.1667 269.5,105.833 269.5,152.5C 267.5,159.167 263.167,163.5 256.5,165.5C 174.833,165.5 93.1667,165.5 11.5,165.5C 5.9877,163.988 1.9877,160.655 -0.5,155.5C -0.5,106.833 -0.5,58.1667 -0.5,9.5C 1.89217,4.77493 5.55883,1.4416 10.5,-0.5 Z"/></g>
<g><path style="opacity:1" fill="#06010c" d="M 254.5,-0.5 C 259.5,-0.5 264.5,-0.5 269.5,-0.5C 269.5,3.83333 269.5,8.16667 269.5,12.5C 267.269,4.93375 262.269,0.600414 254.5,-0.5 Z"/></g>
<g><path style="opacity:1" fill="#fbf9fe" d="M 65.5,107.5 C 59.7969,107.625 54.1302,107.292 48.5,106.5C 34.4147,101.01 28.5814,90.6769 31,75.5C 32.7204,70.5537 35.5538,66.387 39.5,63C 43.5938,63.4108 46.2605,65.7442 47.5,70C 38.7546,80.1952 40.0879,88.8618 51.5,96C 72.1829,98.6509 81.3496,89.4842 79,68.5C 76.1795,59.8452 70.3461,54.5118 61.5,52.5C 59.6965,51.838 57.6965,51.5046 55.5,51.5C 52.1864,51.3425 49.1864,52.0092 46.5,53.5C 41.806,54.9294 37.6393,57.2627 34,60.5C 32.021,58.605 30.021,56.605 28,54.5C 27.2888,52.6332 27.7888,51.1332 29.5,50C 44.7958,38.6446 60.7958,37.6446 77.5,47C 92.7314,60.5861 95.5648,76.4194 86,94.5C 81.0506,101.729 74.2173,106.062 65.5,107.5 Z"/></g>
<g><path style="opacity:1" fill="#f5f2fe" d="M 108.5,43.5 C 117.506,43.3336 126.506,43.5002 135.5,44C 151.545,50.9601 155.712,62.4601 148,78.5C 145.072,82.381 141.239,84.881 136.5,86C 130.555,87.1621 124.555,87.6621 118.5,87.5C 118.666,93.1764 118.499,98.8431 118,104.5C 114.667,105.833 111.333,105.833 108,104.5C 107.18,84.0936 107.346,63.7603 108.5,43.5 Z"/></g>
<g><path style="opacity:1" fill="#8d6ff7" d="M 61.5,52.5 C 56.4635,52.4126 51.4635,52.746 46.5,53.5C 49.1864,52.0092 52.1864,51.3425 55.5,51.5C 57.6965,51.5046 59.6965,51.838 61.5,52.5 Z"/></g>
<g><path style="opacity:1" fill="#5b32f4" d="M 118.5,53.5 C 123.844,53.334 129.177,53.5006 134.5,54C 140.908,57.3228 143.075,62.4895 141,69.5C 140.117,72.1024 138.617,74.2691 136.5,76C 130.593,77.3608 124.593,77.8608 118.5,77.5C 118.5,69.5 118.5,61.5 118.5,53.5 Z"/></g>
<g><path style="opacity:1" fill="#f9f7fe" d="M 167.5,63.5 C 171.846,63.3343 176.179,63.501 180.5,64C 185.681,64.831 189.181,67.6643 191,72.5C 191.5,83.495 191.667,94.495 191.5,105.5C 188.5,105.5 185.5,105.5 182.5,105.5C 182.5,104.5 182.5,103.5 182.5,102.5C 175.833,105.314 168.833,106.147 161.5,105C 156.381,102.66 154.048,98.66 154.5,93C 154.711,87.589 157.377,83.9223 162.5,82C 169.055,80.3472 175.722,79.5139 182.5,79.5C 183.041,76.3484 182.041,73.8484 179.5,72C 175.833,71.3333 172.167,71.3333 168.5,72C 165.506,75.8467 161.506,77.3467 156.5,76.5C 156.907,69.4254 160.573,65.0921 167.5,63.5 Z"/></g>
<g><path style="opacity:1" fill="#f9f8fe" d="M 198.5,64.5 C 201.777,64.2161 204.943,64.5495 208,65.5C 211.839,75.1752 215.672,84.8419 219.5,94.5C 223.476,85.0784 226.976,75.4117 230,65.5C 233.057,64.5495 236.223,64.2161 239.5,64.5C 234.64,79.2447 229.473,93.9114 224,108.5C 220.692,120.569 212.858,125.735 200.5,124C 199.556,121.281 199.223,118.448 199.5,115.5C 203.308,115.837 206.974,115.337 210.5,114C 212.592,112.147 213.592,109.814 213.5,107C 208.638,92.7774 203.638,78.6108 198.5,64.5 Z"/></g>
<g><path style="opacity:1" fill="#6139f4" d="M 168.5,87.5 C 173.167,87.5 177.833,87.5 182.5,87.5C 181.027,97.9071 175.36,101.074 165.5,97C 164.57,95.8061 163.903,94.4728 163.5,93C 164.679,90.6571 166.346,88.8238 168.5,87.5 Z"/></g>
<g><path style="opacity:1" fill="#d3c6fc" d="M 48.5,106.5 C 54.1302,107.292 59.7969,107.625 65.5,107.5C 63.3587,108.163 61.0254,108.497 58.5,108.5C 54.8589,108.685 51.5256,108.019 48.5,106.5 Z"/></g>
<g><path style="opacity:1" fill="#030108" d="M 269.5,152.5 C 269.5,156.833 269.5,161.167 269.5,165.5C 265.167,165.5 260.833,165.5 256.5,165.5C 263.167,163.5 267.5,159.167 269.5,152.5 Z"/></g>
<g><path style="opacity:1" fill="#040109" d="M -0.5,155.5 C 1.9877,160.655 5.9877,163.988 11.5,165.5C 7.5,165.5 3.5,165.5 -0.5,165.5C -0.5,162.167 -0.5,158.833 -0.5,155.5 Z"/></g>
</svg>
