<?xml version="1.0" encoding="UTF-8"?>
<!DOCTYPE svg PUBLIC "-//W3C//DTD SVG 1.1//EN" "http://www.w3.org/Graphics/SVG/1.1/DTD/svg11.dtd">
<svg xmlns="http://www.w3.org/2000/svg" version="1.1" width="271px" height="166px" style="shape-rendering:geometricPrecision; text-rendering:geometricPrecision; image-rendering:optimizeQuality; fill-rule:evenodd; clip-rule:evenodd" xmlns:xlink="http://www.w3.org/1999/xlink">
<g><path style="opacity:1" fill="#070707" d="M -0.5,-0.5 C 3.5,-0.5 7.5,-0.5 11.5,-0.5C 5.40726,1.92519 1.40726,6.25852 -0.5,12.5C -0.5,8.16667 -0.5,3.83333 -0.5,-0.5 Z"/></g>
<g><path style="opacity:1" fill="#fbfbfb" d="M 11.5,-0.5 C 92.8333,-0.5 174.167,-0.5 255.5,-0.5C 263.269,0.600414 268.269,4.93375 270.5,12.5C 270.5,59.1667 270.5,105.833 270.5,152.5C 268.5,159.167 264.167,163.5 257.5,165.5C 175.833,165.5 94.1667,165.5 12.5,165.5C 5.83333,163.5 1.5,159.167 -0.5,152.5C -0.5,105.833 -0.5,59.1667 -0.5,12.5C 1.40726,6.25852 5.40726,1.92519 11.5,-0.5 Z"/></g>
<g><path style="opacity:1" fill="#0c0c0c" d="M 255.5,-0.5 C 260.5,-0.5 265.5,-0.5 270.5,-0.5C 270.5,3.83333 270.5,8.16667 270.5,12.5C 268.269,4.93375 263.269,0.600414 255.5,-0.5 Z"/></g>
<g><path style="opacity:1" fill="#5a65aa" d="M 104.5,54.5 C 102.19,53.8362 99.6903,53.5029 97,53.5C 93.8949,53.6115 91.0616,54.2781 88.5,55.5C 88.5,54.5 88.5,53.5 88.5,52.5C 94.2055,52.1712 99.8722,52.5046 105.5,53.5C 105.376,54.1067 105.043,54.44 104.5,54.5 Z"/></g>
<g><path style="opacity:1" fill="#515ea6" d="M 112.5,53.5 C 117.348,52.1863 122.348,52.1863 127.5,53.5C 127.376,54.1067 127.043,54.44 126.5,54.5C 122.03,53.5139 117.363,53.1805 112.5,53.5 Z"/></g>
<g><path style="opacity:1" fill="#1b2a8a" d="M 88.5,55.5 C 91.0616,54.2781 93.8949,53.6115 97,53.5C 99.6903,53.5029 102.19,53.8362 104.5,54.5C 96.9576,73.2559 89.1243,91.9226 81,110.5C 75.2588,111.475 69.4254,111.808 63.5,111.5C 59.8633,95.8248 56.03,80.1581 52,64.5C 46.0463,58.6799 38.8796,55.6799 30.5,55.5C 30.5,54.5 30.5,53.5 30.5,52.5C 41.2702,52.0471 51.9369,52.5471 62.5,54C 64.317,55.7998 65.4837,57.9664 66,60.5C 67.7065,71.3236 70.0398,81.9903 73,92.5C 78.263,80.2123 83.4296,67.8789 88.5,55.5 Z"/></g>
<g><path style="opacity:1" fill="#192889" d="M 112.5,53.5 C 117.363,53.1805 122.03,53.5139 126.5,54.5C 122.66,73.5291 118.66,92.5291 114.5,111.5C 113.5,111.5 112.5,111.5 111.5,111.5C 107.833,111.5 104.167,111.5 100.5,111.5C 100.5,110.5 100.5,109.5 100.5,108.5C 104.502,90.138 108.502,71.8046 112.5,53.5 Z"/></g>
<g><path style="opacity:1" fill="#1c2a8a" d="M 145.5,52.5 C 154.559,52.1541 163.559,52.6541 172.5,54C 173.059,54.7247 173.392,55.5581 173.5,56.5C 172.512,59.7816 171.846,63.1149 171.5,66.5C 167.462,65.4213 163.462,64.4213 159.5,63.5C 156.741,63.542 154.075,64.042 151.5,65C 149.275,67.025 148.941,69.3583 150.5,72C 157.503,75.4119 163.669,79.9119 169,85.5C 172.213,97.5746 168.046,106.075 156.5,111C 146.414,111.877 136.414,111.377 126.5,109.5C 127.038,105.476 127.705,101.476 128.5,97.5C 135.978,100.706 143.645,101.206 151.5,99C 154.703,97.0534 155.203,94.5534 153,91.5C 149.095,88.6023 144.929,86.1023 140.5,84C 132.479,77.9501 130.646,70.4501 135,61.5C 138.103,57.886 141.603,54.886 145.5,52.5 Z"/></g>
<g><path style="opacity:1" fill="#1a298a" d="M 197.5,52.5 C 202.833,52.5 208.167,52.5 213.5,52.5C 217.603,72.3881 221.936,92.2214 226.5,112C 221.798,112.828 217.131,112.662 212.5,111.5C 211.833,109.167 211.167,106.833 210.5,104.5C 203.833,103.167 197.167,103.167 190.5,104.5C 189.215,107.021 188.548,109.687 188.5,112.5C 182.824,112.666 177.157,112.499 171.5,112C 180.327,92.184 188.994,72.3507 197.5,52.5 Z"/></g>
<g><path style="opacity:1" fill="#f4f5f9" d="M 202.5,68.5 C 203.5,68.5 204.5,68.5 205.5,68.5C 207.153,75.7263 208.153,83.0596 208.5,90.5C 204.167,90.5 199.833,90.5 195.5,90.5C 196.227,82.6517 198.561,75.3183 202.5,68.5 Z"/></g>
<g><path style="opacity:1" fill="#6c74b3" d="M 100.5,108.5 C 100.5,109.5 100.5,110.5 100.5,111.5C 104.167,111.5 107.833,111.5 111.5,111.5C 107.702,112.483 103.702,112.817 99.5,112.5C 99.2322,110.901 99.5655,109.568 100.5,108.5 Z"/></g>
<g><path style="opacity:1" fill="#080808" d="M -0.5,152.5 C 1.5,159.167 5.83333,163.5 12.5,165.5C 8.16667,165.5 3.83333,165.5 -0.5,165.5C -0.5,161.167 -0.5,156.833 -0.5,152.5 Z"/></g>
<g><path style="opacity:1" fill="#080808" d="M 270.5,152.5 C 270.5,156.833 270.5,161.167 270.5,165.5C 266.167,165.5 261.833,165.5 257.5,165.5C 264.167,163.5 268.5,159.167 270.5,152.5 Z"/></g>
</svg>
