<?xml version="1.0" encoding="UTF-8"?>
<!DOCTYPE svg PUBLIC "-//W3C//DTD SVG 1.1//EN" "http://www.w3.org/Graphics/SVG/1.1/DTD/svg11.dtd">
<svg xmlns="http://www.w3.org/2000/svg" version="1.1" width="271px" height="170px" style="shape-rendering:geometricPrecision; text-rendering:geometricPrecision; image-rendering:optimizeQuality; fill-rule:evenodd; clip-rule:evenodd" xmlns:xlink="http://www.w3.org/1999/xlink">
<g><path style="opacity:1" fill="#010101" d="M -0.5,-0.5 C 89.8333,-0.5 180.167,-0.5 270.5,-0.5C 270.5,56.1667 270.5,112.833 270.5,169.5C 180.167,169.5 89.8333,169.5 -0.5,169.5C -0.5,112.833 -0.5,56.1667 -0.5,-0.5 Z"/></g>
<g><path style="opacity:1" fill="#fefefe" d="M 9.5,0.5 C 94.224,0.00809759 178.891,0.508098 263.5,2C 265.917,3.66261 267.75,5.82927 269,8.5C 269.986,59.8917 269.653,111.225 268,162.5C 266.125,165.187 263.625,167.021 260.5,168C 175.777,168.992 91.11,168.658 6.5,167C 3.8127,165.125 1.97936,162.625 1,159.5C 0.333333,109.5 0.333333,59.5 1,9.5C 2.3513,4.98479 5.18463,1.98479 9.5,0.5 Z"/></g>
<g><path style="opacity:1" fill="#0a0a0a" d="M 67.5,44.5 C 68.8333,44.5 70.1667,44.5 71.5,44.5C 71.7525,53.5756 67.4192,58.5756 58.5,59.5C 58.2475,56.6802 58.7475,54.0135 60,51.5C 62.3959,48.9334 64.8959,46.6 67.5,44.5 Z"/></g>
<g><path style="opacity:1" fill="#4d4d4d" d="M 130.5,49.5 C 122.167,49.5 113.833,49.5 105.5,49.5C 105.5,70.5 105.5,91.5 105.5,112.5C 104.503,91.3399 104.169,70.0065 104.5,48.5C 113.349,48.1736 122.016,48.507 130.5,49.5 Z"/></g>
<g><path style="opacity:1" fill="#020202" d="M 130.5,49.5 C 142.078,50.9108 148.411,57.4108 149.5,69C 149.884,79.9143 144.884,86.9143 134.5,90C 127.842,90.4996 121.175,90.6663 114.5,90.5C 114.5,97.8333 114.5,105.167 114.5,112.5C 111.5,112.5 108.5,112.5 105.5,112.5C 105.5,91.5 105.5,70.5 105.5,49.5C 113.833,49.5 122.167,49.5 130.5,49.5 Z"/></g>
<g><path style="opacity:1" fill="#fbfbfb" d="M 114.5,57.5 C 120.176,57.3339 125.843,57.5006 131.5,58C 139.377,62.0234 141.543,68.1901 138,76.5C 136.52,79.6626 134.02,81.496 130.5,82C 125.177,82.4994 119.844,82.666 114.5,82.5C 114.5,74.1667 114.5,65.8333 114.5,57.5 Z"/></g>
<g><path style="opacity:1" fill="#040404" d="M 68.5,60.5 C 73.8728,60.6796 78.7062,62.3462 83,65.5C 83.6667,66.5 83.6667,67.5 83,68.5C 77.3546,74.2183 76.0212,80.8849 79,88.5C 81.0876,91.1128 83.2542,93.6128 85.5,96C 83.4228,103.069 79.4228,108.736 73.5,113C 71.5,113.667 69.5,113.667 67.5,113C 65.1,111.299 62.4334,110.466 59.5,110.5C 54.8222,111.696 50.1555,112.529 45.5,113C 33.2857,102.699 28.4524,89.5326 31,73.5C 36.7206,61.3714 45.8872,58.0381 58.5,63.5C 62.0925,63.0184 65.4259,62.0184 68.5,60.5 Z"/></g>
<g><path style="opacity:1" fill="#080808" d="M 165.5,66.5 C 172.877,65.6893 179.877,66.856 186.5,70C 187.787,71.4095 188.954,72.9095 190,74.5C 191.461,87.0668 191.961,99.7335 191.5,112.5C 188.5,112.5 185.5,112.5 182.5,112.5C 182.663,110.143 182.497,107.81 182,105.5C 174.02,114.872 165.02,115.872 155,108.5C 150.433,100.136 151.933,93.3027 159.5,88C 166.686,85.9724 174.02,85.1391 181.5,85.5C 181.872,74.7546 176.872,71.2546 166.5,75C 164.393,76.2635 163.393,78.0968 163.5,80.5C 160.5,80.5 157.5,80.5 154.5,80.5C 155.197,73.4724 158.864,68.8058 165.5,66.5 Z"/></g>
<g><path style="opacity:1" fill="#080808" d="M 195.5,67.5 C 198.899,66.1802 202.399,66.1802 206,67.5C 209.54,79.2861 213.373,90.9528 217.5,102.5C 221.574,90.6131 225.24,78.6131 228.5,66.5C 232.182,66.3347 235.848,66.5014 239.5,67C 232.341,85.8055 225.175,104.639 218,123.5C 213.428,128.892 207.594,130.892 200.5,129.5C 200.5,127.167 200.5,124.833 200.5,122.5C 207.285,122.719 210.952,119.386 211.5,112.5C 206.931,97.1212 201.598,82.1212 195.5,67.5 Z"/></g>
<g><path style="opacity:1" fill="#676767" d="M 174.5,92.5 C 176.948,91.5269 179.615,91.1936 182.5,91.5C 182.795,93.7354 182.461,95.7354 181.5,97.5C 181.5,95.8333 181.5,94.1667 181.5,92.5C 179.167,92.5 176.833,92.5 174.5,92.5 Z"/></g>
<g><path style="opacity:1" fill="#f7f7f7" d="M 174.5,92.5 C 176.833,92.5 179.167,92.5 181.5,92.5C 181.5,94.1667 181.5,95.8333 181.5,97.5C 179.643,103.112 175.643,105.779 169.5,105.5C 163.231,105.624 160.731,102.624 162,96.5C 165.444,93.1174 169.61,91.7841 174.5,92.5 Z"/></g>
</svg>
