<?xml version="1.0" encoding="UTF-8"?>
<!DOCTYPE svg PUBLIC "-//W3C//DTD SVG 1.1//EN" "http://www.w3.org/Graphics/SVG/1.1/DTD/svg11.dtd">
<svg xmlns="http://www.w3.org/2000/svg" version="1.1" width="271px" height="166px" style="shape-rendering:geometricPrecision; text-rendering:geometricPrecision; image-rendering:optimizeQuality; fill-rule:evenodd; clip-rule:evenodd" xmlns:xlink="http://www.w3.org/1999/xlink">
<g><path style="opacity:1" fill="#070707" d="M -0.5,-0.5 C 3.5,-0.5 7.5,-0.5 11.5,-0.5C 5.40726,1.92519 1.40726,6.25852 -0.5,12.5C -0.5,8.16667 -0.5,3.83333 -0.5,-0.5 Z"/></g>
<g><path style="opacity:1" fill="#fbfbfb" d="M 11.5,-0.5 C 92.8333,-0.5 174.167,-0.5 255.5,-0.5C 263.269,0.600414 268.269,4.93375 270.5,12.5C 270.5,59.1667 270.5,105.833 270.5,152.5C 268.5,159.167 264.167,163.5 257.5,165.5C 175.833,165.5 94.1667,165.5 12.5,165.5C 5.83333,163.5 1.5,159.167 -0.5,152.5C -0.5,105.833 -0.5,59.1667 -0.5,12.5C 1.40726,6.25852 5.40726,1.92519 11.5,-0.5 Z"/></g>
<g><path style="opacity:1" fill="#0c0c0c" d="M 255.5,-0.5 C 260.5,-0.5 265.5,-0.5 270.5,-0.5C 270.5,3.83333 270.5,8.16667 270.5,12.5C 268.269,4.93375 263.269,0.600414 255.5,-0.5 Z"/></g>
<g><path style="opacity:1" fill="#ea4537" d="M 45.5,69.5 C 41.8333,66.8333 38.1667,64.1667 34.5,61.5C 42.736,46.5498 55.4027,40.3831 72.5,43C 77.9025,44.8685 82.9025,47.5352 87.5,51C 84.5,54 81.5,57 78.5,60C 64.3672,51.8742 53.3672,55.0409 45.5,69.5 Z"/></g>
<g><path style="opacity:1" fill="#63676c" d="M 120.5,47.5 C 129.506,47.3336 138.506,47.5002 147.5,48C 157.944,52.7656 161.444,60.5989 158,71.5C 150.894,81.8982 141.061,85.5649 128.5,82.5C 128.5,90.5 128.5,98.5 128.5,106.5C 125.833,106.5 123.167,106.5 120.5,106.5C 120.5,86.8333 120.5,67.1667 120.5,47.5 Z"/></g>
<g><path style="opacity:1" fill="#fbfbfc" d="M 128.5,54.5 C 133.844,54.334 139.177,54.5006 144.5,55C 151.283,58.4006 153.116,63.5672 150,70.5C 148.442,72.3589 146.609,73.8589 144.5,75C 139.177,75.4994 133.844,75.666 128.5,75.5C 128.5,68.5 128.5,61.5 128.5,54.5 Z"/></g>
<g><path style="opacity:1" fill="#fabc10" d="M 34.5,61.5 C 38.1667,64.1667 41.8333,66.8333 45.5,69.5C 44.2376,74.1521 44.2376,78.8188 45.5,83.5C 41.6562,85.922 37.9895,88.5887 34.5,91.5C 29.3791,81.4534 29.3791,71.4534 34.5,61.5 Z"/></g>
<g><path style="opacity:1" fill="#63676b" d="M 170.5,64.5 C 180.766,62.5219 188.6,65.8552 194,74.5C 194.5,85.1615 194.667,95.8281 194.5,106.5C 192.167,106.5 189.833,106.5 187.5,106.5C 187.66,104.801 187.494,103.134 187,101.5C 179.318,108.917 171.151,109.417 162.5,103C 155.805,88.9871 160.305,81.1538 176,79.5C 179.903,79.6907 183.57,80.6907 187,82.5C 187.955,77.5768 186.121,74.0768 181.5,72C 175.622,70.3468 170.788,71.8468 167,76.5C 164.833,75 162.667,73.5 160.5,72C 163.365,68.7489 166.699,66.2489 170.5,64.5 Z"/></g>
<g><path style="opacity:1" fill="#64686d" d="M 196.5,65.5 C 199.448,65.2229 202.281,65.5562 205,66.5C 209,75.8333 213,85.1667 217,94.5C 220.736,85.1264 224.569,75.793 228.5,66.5C 231.167,65.1667 233.833,65.1667 236.5,66.5C 228.361,85.5829 220.028,104.583 211.5,123.5C 208.833,124.833 206.167,124.833 203.5,123.5C 206.333,117.833 209.167,112.167 212,106.5C 212.667,104.5 212.667,102.5 212,100.5C 206.731,88.8507 201.564,77.184 196.5,65.5 Z"/></g>
<g><path style="opacity:1" fill="#4586f3" d="M 65.5,70.5 C 76.1667,70.5 86.8333,70.5 97.5,70.5C 98.4465,81.5972 95.6132,91.5972 89,100.5C 88.3292,101.252 87.4959,101.586 86.5,101.5C 82.8536,99.1829 79.5203,96.5162 76.5,93.5C 80.0076,91.1642 82.0076,87.8309 82.5,83.5C 77.0247,82.5111 71.358,82.1778 65.5,82.5C 65.5,78.5 65.5,74.5 65.5,70.5 Z"/></g>
<g><path style="opacity:1" fill="#72a3f7" d="M 65.5,70.5 C 65.5,74.5 65.5,78.5 65.5,82.5C 71.358,82.1778 77.0247,82.5111 82.5,83.5C 76.5,83.5 70.5,83.5 64.5,83.5C 64.1818,78.9677 64.5151,74.6344 65.5,70.5 Z"/></g>
<g><path style="opacity:1" fill="#3aa956" d="M 45.5,83.5 C 52.4523,96.7913 62.7856,100.125 76.5,93.5C 79.5203,96.5162 82.8536,99.1829 86.5,101.5C 86.0629,103.074 85.0629,104.241 83.5,105C 63.0746,115.311 46.7413,110.811 34.5,91.5C 37.9895,88.5887 41.6562,85.922 45.5,83.5 Z"/></g>
<g><path style="opacity:1" fill="#fbfbfb" d="M 172.5,86.5 C 177.37,86.0316 182.036,86.6982 186.5,88.5C 187.407,94.1711 185.074,98.0044 179.5,100C 170.848,102.288 167.015,99.121 168,90.5C 169.397,88.9297 170.897,87.5964 172.5,86.5 Z"/></g>
<g><path style="opacity:1" fill="#080808" d="M -0.5,152.5 C 1.5,159.167 5.83333,163.5 12.5,165.5C 8.16667,165.5 3.83333,165.5 -0.5,165.5C -0.5,161.167 -0.5,156.833 -0.5,152.5 Z"/></g>
<g><path style="opacity:1" fill="#080808" d="M 270.5,152.5 C 270.5,156.833 270.5,161.167 270.5,165.5C 266.167,165.5 261.833,165.5 257.5,165.5C 264.167,163.5 268.5,159.167 270.5,152.5 Z"/></g>
</svg>
