<?xml version="1.0" encoding="UTF-8"?>
<!DOCTYPE svg PUBLIC "-//W3C//DTD SVG 1.1//EN" "http://www.w3.org/Graphics/SVG/1.1/DTD/svg11.dtd">
<svg xmlns="http://www.w3.org/2000/svg" version="1.1" width="271px" height="166px" style="shape-rendering:geometricPrecision; text-rendering:geometricPrecision; image-rendering:optimizeQuality; fill-rule:evenodd; clip-rule:evenodd" xmlns:xlink="http://www.w3.org/1999/xlink">
<g><path style="opacity:1" fill="#070707" d="M -0.5,-0.5 C 3.5,-0.5 7.5,-0.5 11.5,-0.5C 5.40726,1.92519 1.40726,6.25852 -0.5,12.5C -0.5,8.16667 -0.5,3.83333 -0.5,-0.5 Z"/></g>
<g><path style="opacity:1" fill="#fbfbfa" d="M 11.5,-0.5 C 92.8333,-0.5 174.167,-0.5 255.5,-0.5C 263.269,0.600414 268.269,4.93375 270.5,12.5C 270.5,59.1667 270.5,105.833 270.5,152.5C 268.5,159.167 264.167,163.5 257.5,165.5C 175.833,165.5 94.1667,165.5 12.5,165.5C 5.83333,163.5 1.5,159.167 -0.5,152.5C -0.5,105.833 -0.5,59.1667 -0.5,12.5C 1.40726,6.25852 5.40726,1.92519 11.5,-0.5 Z"/></g>
<g><path style="opacity:1" fill="#0c0c0c" d="M 255.5,-0.5 C 260.5,-0.5 265.5,-0.5 270.5,-0.5C 270.5,3.83333 270.5,8.16667 270.5,12.5C 268.269,4.93375 263.269,0.600414 255.5,-0.5 Z"/></g>
<g><path style="opacity:1" fill="#eb031c" d="M 134.5,39.5 C 111.854,58.4278 106.687,81.4278 119,108.5C 123.295,114.961 128.461,120.628 134.5,125.5C 122.198,134.055 108.532,136.888 93.5,134C 64.0939,124.577 50.5939,104.411 53,73.5C 61.9212,41.924 82.7546,27.7574 115.5,31C 122.502,32.6008 128.836,35.4341 134.5,39.5 Z"/></g>
<g><path style="opacity:1" fill="#f79e1c" d="M 135.5,125.5 C 157.143,107.26 162.643,84.927 152,58.5C 147.726,51.0618 142.226,44.7285 135.5,39.5C 147.424,30.9153 160.758,28.082 175.5,31C 207.36,40.8741 220.86,62.3741 216,95.5C 204.578,126.799 182.412,139.299 149.5,133C 144.326,131.249 139.659,128.749 135.5,125.5 Z"/></g>
<g><path style="opacity:1" fill="#fe5f00" d="M 134.5,39.5 C 134.833,39.5 135.167,39.5 135.5,39.5C 142.226,44.7285 147.726,51.0618 152,58.5C 162.643,84.927 157.143,107.26 135.5,125.5C 135.167,125.5 134.833,125.5 134.5,125.5C 128.461,120.628 123.295,114.961 119,108.5C 106.687,81.4278 111.854,58.4278 134.5,39.5 Z"/></g>
<g><path style="opacity:1" fill="#080808" d="M -0.5,152.5 C 1.5,159.167 5.83333,163.5 12.5,165.5C 8.16667,165.5 3.83333,165.5 -0.5,165.5C -0.5,161.167 -0.5,156.833 -0.5,152.5 Z"/></g>
<g><path style="opacity:1" fill="#080808" d="M 270.5,152.5 C 270.5,156.833 270.5,161.167 270.5,165.5C 266.167,165.5 261.833,165.5 257.5,165.5C 264.167,163.5 268.5,159.167 270.5,152.5 Z"/></g>
</svg>
